<mxfile host="app.diagrams.net" modified="2024-04-28T19:59:53.131Z" agent="Mozilla/5.0 (Windows NT 10.0; Win64; x64) AppleWebKit/537.36 (KHTML, like Gecko) Chrome/124.0.0.0 Safari/537.36" etag="jsZR1aWqTG6Vdph_pQ5S" version="24.2.7" type="github">
  <diagram id="R2lEEEUBdFMjLlhIrx00" name="Page-1">
    <mxGraphModel dx="1434" dy="738" grid="1" gridSize="6" guides="1" tooltips="1" connect="1" arrows="1" fold="1" page="1" pageScale="1" pageWidth="1169" pageHeight="827" math="0" shadow="0" extFonts="Permanent Marker^https://fonts.googleapis.com/css?family=Permanent+Marker">
      <root>
        <mxCell id="0" />
        <mxCell id="1" parent="0" />
        <mxCell id="mSEk94hID1eBO2uNQYs_-1" value="Students" style="rounded=0;whiteSpace=wrap;html=1;fontSize=14;" parent="1" vertex="1">
          <mxGeometry x="252" y="272" width="92" height="42" as="geometry" />
        </mxCell>
        <mxCell id="mSEk94hID1eBO2uNQYs_-2" value="ITI" style="text;html=1;align=center;verticalAlign=middle;resizable=0;points=[];autosize=1;strokeColor=none;fillColor=none;fontSize=20;fontStyle=1" parent="1" vertex="1">
          <mxGeometry x="561" y="24" width="48" height="42" as="geometry" />
        </mxCell>
        <mxCell id="mSEk94hID1eBO2uNQYs_-3" value="Departments" style="whiteSpace=wrap;html=1;fontSize=14;" parent="1" vertex="1">
          <mxGeometry x="804" y="236" width="92" height="46" as="geometry" />
        </mxCell>
        <mxCell id="mSEk94hID1eBO2uNQYs_-4" value="St_id&lt;hr style=&quot;font-size: 14px;&quot;&gt;" style="ellipse;whiteSpace=wrap;html=1;fontSize=14;" parent="1" vertex="1">
          <mxGeometry x="270" y="168" width="84" height="58" as="geometry" />
        </mxCell>
        <mxCell id="mSEk94hID1eBO2uNQYs_-5" value="studentName" style="ellipse;whiteSpace=wrap;html=1;fontSize=14;" parent="1" vertex="1">
          <mxGeometry x="180" y="344" width="98" height="54" as="geometry" />
        </mxCell>
        <mxCell id="mSEk94hID1eBO2uNQYs_-6" value="Lname" style="ellipse;whiteSpace=wrap;html=1;fontSize=14;" parent="1" vertex="1">
          <mxGeometry x="222" y="434" width="84" height="40" as="geometry" />
        </mxCell>
        <mxCell id="mSEk94hID1eBO2uNQYs_-7" value="Fname" style="ellipse;whiteSpace=wrap;html=1;fontSize=14;" parent="1" vertex="1">
          <mxGeometry x="102" y="440" width="86" height="40" as="geometry" />
        </mxCell>
        <mxCell id="mSEk94hID1eBO2uNQYs_-8" value="St_age" style="ellipse;whiteSpace=wrap;html=1;fontSize=14;" parent="1" vertex="1">
          <mxGeometry x="102" y="264" width="78" height="58" as="geometry" />
        </mxCell>
        <mxCell id="mSEk94hID1eBO2uNQYs_-10" value="St_address" style="ellipse;whiteSpace=wrap;html=1;fontSize=14;" parent="1" vertex="1">
          <mxGeometry x="114" y="176" width="94" height="62" as="geometry" />
        </mxCell>
        <mxCell id="mSEk94hID1eBO2uNQYs_-42" value="" style="endArrow=none;html=1;rounded=0;entryX=0.5;entryY=1;entryDx=0;entryDy=0;exitX=0.5;exitY=0;exitDx=0;exitDy=0;fontSize=14;" parent="1" source="mSEk94hID1eBO2uNQYs_-5" target="mSEk94hID1eBO2uNQYs_-1" edge="1">
          <mxGeometry width="50" height="50" relative="1" as="geometry">
            <mxPoint x="378" y="340" as="sourcePoint" />
            <mxPoint x="428" y="290" as="targetPoint" />
          </mxGeometry>
        </mxCell>
        <mxCell id="mSEk94hID1eBO2uNQYs_-44" value="" style="endArrow=none;html=1;rounded=0;exitX=0.5;exitY=0;exitDx=0;exitDy=0;entryX=0.5;entryY=1;entryDx=0;entryDy=0;fontSize=14;" parent="1" source="mSEk94hID1eBO2uNQYs_-7" target="mSEk94hID1eBO2uNQYs_-5" edge="1">
          <mxGeometry width="50" height="50" relative="1" as="geometry">
            <mxPoint x="240" y="448" as="sourcePoint" />
            <mxPoint x="290" y="398" as="targetPoint" />
          </mxGeometry>
        </mxCell>
        <mxCell id="mSEk94hID1eBO2uNQYs_-45" value="" style="endArrow=none;html=1;rounded=0;entryX=0.5;entryY=1;entryDx=0;entryDy=0;exitX=0.429;exitY=0;exitDx=0;exitDy=0;exitPerimeter=0;fontSize=14;" parent="1" source="mSEk94hID1eBO2uNQYs_-6" target="mSEk94hID1eBO2uNQYs_-5" edge="1">
          <mxGeometry width="50" height="50" relative="1" as="geometry">
            <mxPoint x="390" y="430" as="sourcePoint" />
            <mxPoint x="440" y="380" as="targetPoint" />
          </mxGeometry>
        </mxCell>
        <mxCell id="mSEk94hID1eBO2uNQYs_-46" value="" style="endArrow=none;html=1;rounded=0;entryX=0;entryY=0.5;entryDx=0;entryDy=0;exitX=1;exitY=0.5;exitDx=0;exitDy=0;fontSize=14;" parent="1" source="mSEk94hID1eBO2uNQYs_-8" target="mSEk94hID1eBO2uNQYs_-1" edge="1">
          <mxGeometry width="50" height="50" relative="1" as="geometry">
            <mxPoint x="150" y="388" as="sourcePoint" />
            <mxPoint x="200" y="338" as="targetPoint" />
          </mxGeometry>
        </mxCell>
        <mxCell id="mSEk94hID1eBO2uNQYs_-47" value="" style="endArrow=none;html=1;rounded=0;entryX=1;entryY=1;entryDx=0;entryDy=0;exitX=0.25;exitY=0;exitDx=0;exitDy=0;fontSize=14;" parent="1" source="mSEk94hID1eBO2uNQYs_-1" target="mSEk94hID1eBO2uNQYs_-10" edge="1">
          <mxGeometry width="50" height="50" relative="1" as="geometry">
            <mxPoint x="210" y="298" as="sourcePoint" />
            <mxPoint x="260" y="248" as="targetPoint" />
          </mxGeometry>
        </mxCell>
        <mxCell id="mSEk94hID1eBO2uNQYs_-48" value="" style="endArrow=none;html=1;rounded=0;entryX=0.5;entryY=0;entryDx=0;entryDy=0;exitX=0.5;exitY=1;exitDx=0;exitDy=0;fontSize=14;" parent="1" source="mSEk94hID1eBO2uNQYs_-4" target="mSEk94hID1eBO2uNQYs_-1" edge="1">
          <mxGeometry width="50" height="50" relative="1" as="geometry">
            <mxPoint x="360" y="364" as="sourcePoint" />
            <mxPoint x="410" y="314" as="targetPoint" />
          </mxGeometry>
        </mxCell>
        <mxCell id="mSEk94hID1eBO2uNQYs_-49" value="dept_id&lt;hr&gt;" style="ellipse;whiteSpace=wrap;html=1;" parent="1" vertex="1">
          <mxGeometry x="807" y="132" width="86" height="60" as="geometry" />
        </mxCell>
        <mxCell id="mSEk94hID1eBO2uNQYs_-50" value="dep_name" style="ellipse;whiteSpace=wrap;html=1;" parent="1" vertex="1">
          <mxGeometry x="972" y="222" width="90" height="60" as="geometry" />
        </mxCell>
        <mxCell id="mSEk94hID1eBO2uNQYs_-51" value="" style="endArrow=none;html=1;rounded=0;exitX=0.5;exitY=0;exitDx=0;exitDy=0;entryX=0.5;entryY=1;entryDx=0;entryDy=0;" parent="1" source="mSEk94hID1eBO2uNQYs_-3" target="mSEk94hID1eBO2uNQYs_-49" edge="1">
          <mxGeometry width="50" height="50" relative="1" as="geometry">
            <mxPoint x="630" y="284" as="sourcePoint" />
            <mxPoint x="680" y="234" as="targetPoint" />
          </mxGeometry>
        </mxCell>
        <mxCell id="mSEk94hID1eBO2uNQYs_-52" value="" style="endArrow=none;html=1;rounded=0;exitX=1;exitY=0.5;exitDx=0;exitDy=0;entryX=0;entryY=0.5;entryDx=0;entryDy=0;" parent="1" source="mSEk94hID1eBO2uNQYs_-3" target="mSEk94hID1eBO2uNQYs_-50" edge="1">
          <mxGeometry width="50" height="50" relative="1" as="geometry">
            <mxPoint x="648" y="344" as="sourcePoint" />
            <mxPoint x="698" y="294" as="targetPoint" />
          </mxGeometry>
        </mxCell>
        <mxCell id="mSEk94hID1eBO2uNQYs_-66" value="Courses" style="rounded=0;whiteSpace=wrap;html=1;fontSize=14;" parent="1" vertex="1">
          <mxGeometry x="438" y="486" width="92" height="42" as="geometry" />
        </mxCell>
        <mxCell id="mSEk94hID1eBO2uNQYs_-67" value="Crs_id&lt;hr&gt;" style="ellipse;whiteSpace=wrap;html=1;fontSize=14;" parent="1" vertex="1">
          <mxGeometry x="336" y="403" width="84" height="58" as="geometry" />
        </mxCell>
        <mxCell id="mSEk94hID1eBO2uNQYs_-68" value="Crs_name" style="ellipse;whiteSpace=wrap;html=1;fontSize=14;" parent="1" vertex="1">
          <mxGeometry x="426" y="558" width="98" height="54" as="geometry" />
        </mxCell>
        <mxCell id="mSEk94hID1eBO2uNQYs_-71" value="Crs_descreption" style="ellipse;whiteSpace=wrap;html=1;fontSize=14;" parent="1" vertex="1">
          <mxGeometry x="537" y="558" width="123" height="72" as="geometry" />
        </mxCell>
        <mxCell id="mSEk94hID1eBO2uNQYs_-72" value="Crs_duration" style="ellipse;whiteSpace=wrap;html=1;fontSize=14;" parent="1" vertex="1">
          <mxGeometry x="606" y="466" width="94" height="62" as="geometry" />
        </mxCell>
        <mxCell id="mSEk94hID1eBO2uNQYs_-73" value="" style="endArrow=none;html=1;rounded=0;entryX=0.5;entryY=1;entryDx=0;entryDy=0;exitX=0.5;exitY=0;exitDx=0;exitDy=0;fontSize=14;" parent="1" source="mSEk94hID1eBO2uNQYs_-68" target="mSEk94hID1eBO2uNQYs_-66" edge="1">
          <mxGeometry width="50" height="50" relative="1" as="geometry">
            <mxPoint x="675" y="538" as="sourcePoint" />
            <mxPoint x="725" y="488" as="targetPoint" />
          </mxGeometry>
        </mxCell>
        <mxCell id="mSEk94hID1eBO2uNQYs_-76" value="" style="endArrow=none;html=1;rounded=0;fontSize=14;exitX=0.357;exitY=0.052;exitDx=0;exitDy=0;entryX=1;entryY=1;entryDx=0;entryDy=0;exitPerimeter=0;" parent="1" source="mSEk94hID1eBO2uNQYs_-71" target="mSEk94hID1eBO2uNQYs_-66" edge="1">
          <mxGeometry width="50" height="50" relative="1" as="geometry">
            <mxPoint x="720" y="492" as="sourcePoint" />
            <mxPoint x="642" y="492" as="targetPoint" />
          </mxGeometry>
        </mxCell>
        <mxCell id="mSEk94hID1eBO2uNQYs_-77" value="" style="endArrow=none;html=1;rounded=0;exitX=1;exitY=0;exitDx=0;exitDy=0;fontSize=14;entryX=0;entryY=0.613;entryDx=0;entryDy=0;entryPerimeter=0;" parent="1" source="mSEk94hID1eBO2uNQYs_-66" target="mSEk94hID1eBO2uNQYs_-72" edge="1">
          <mxGeometry width="50" height="50" relative="1" as="geometry">
            <mxPoint x="507" y="496" as="sourcePoint" />
            <mxPoint x="600" y="498" as="targetPoint" />
          </mxGeometry>
        </mxCell>
        <mxCell id="mSEk94hID1eBO2uNQYs_-78" value="" style="endArrow=none;html=1;rounded=0;entryX=0.25;entryY=0;entryDx=0;entryDy=0;exitX=1;exitY=1;exitDx=0;exitDy=0;fontSize=14;" parent="1" source="mSEk94hID1eBO2uNQYs_-67" target="mSEk94hID1eBO2uNQYs_-66" edge="1">
          <mxGeometry width="50" height="50" relative="1" as="geometry">
            <mxPoint x="657" y="562" as="sourcePoint" />
            <mxPoint x="707" y="512" as="targetPoint" />
          </mxGeometry>
        </mxCell>
        <mxCell id="mSEk94hID1eBO2uNQYs_-79" value="Take" style="rhombus;whiteSpace=wrap;html=1;" parent="1" vertex="1">
          <mxGeometry x="444" y="294" width="80" height="80" as="geometry" />
        </mxCell>
        <mxCell id="mSEk94hID1eBO2uNQYs_-80" value="" style="endArrow=none;html=1;rounded=0;exitX=0.5;exitY=0;exitDx=0;exitDy=0;entryX=0.5;entryY=1;entryDx=0;entryDy=0;" parent="1" source="mSEk94hID1eBO2uNQYs_-79" target="mSEk94hID1eBO2uNQYs_-81" edge="1">
          <mxGeometry width="50" height="50" relative="1" as="geometry">
            <mxPoint x="486" y="288" as="sourcePoint" />
            <mxPoint x="512" y="204" as="targetPoint" />
          </mxGeometry>
        </mxCell>
        <mxCell id="mSEk94hID1eBO2uNQYs_-81" value="Grade" style="ellipse;whiteSpace=wrap;html=1;" parent="1" vertex="1">
          <mxGeometry x="444" y="204" width="80" height="46" as="geometry" />
        </mxCell>
        <mxCell id="mSEk94hID1eBO2uNQYs_-82" value="" style="endArrow=none;html=1;rounded=0;entryX=1;entryY=0.5;entryDx=0;entryDy=0;exitX=0;exitY=0.5;exitDx=0;exitDy=0;" parent="1" source="mSEk94hID1eBO2uNQYs_-79" target="mSEk94hID1eBO2uNQYs_-1" edge="1">
          <mxGeometry width="50" height="50" relative="1" as="geometry">
            <mxPoint x="360" y="404" as="sourcePoint" />
            <mxPoint x="410" y="354" as="targetPoint" />
          </mxGeometry>
        </mxCell>
        <mxCell id="mSEk94hID1eBO2uNQYs_-83" value="" style="endArrow=none;html=1;rounded=0;exitX=1;exitY=1;exitDx=0;exitDy=0;" parent="1" source="mSEk94hID1eBO2uNQYs_-79" edge="1">
          <mxGeometry width="50" height="50" relative="1" as="geometry">
            <mxPoint x="390" y="518" as="sourcePoint" />
            <mxPoint x="480" y="486" as="targetPoint" />
          </mxGeometry>
        </mxCell>
        <mxCell id="mSEk94hID1eBO2uNQYs_-84" value="M" style="edgeLabel;html=1;align=center;verticalAlign=middle;resizable=0;points=[];" parent="mSEk94hID1eBO2uNQYs_-83" vertex="1" connectable="0">
          <mxGeometry x="0.7636" y="4" relative="1" as="geometry">
            <mxPoint x="5" y="-1" as="offset" />
          </mxGeometry>
        </mxCell>
        <mxCell id="mSEk94hID1eBO2uNQYs_-85" value="M" style="edgeLabel;html=1;align=center;verticalAlign=middle;resizable=0;points=[];" parent="mSEk94hID1eBO2uNQYs_-83" vertex="1" connectable="0">
          <mxGeometry x="0.7636" y="4" relative="1" as="geometry">
            <mxPoint x="-133" y="-183" as="offset" />
          </mxGeometry>
        </mxCell>
        <mxCell id="mSEk94hID1eBO2uNQYs_-87" value="Instructors" style="whiteSpace=wrap;html=1;fontSize=14;" parent="1" vertex="1">
          <mxGeometry x="807" y="470" width="92" height="46" as="geometry" />
        </mxCell>
        <mxCell id="mSEk94hID1eBO2uNQYs_-88" value="Ins_id&lt;hr&gt;" style="ellipse;whiteSpace=wrap;html=1;" parent="1" vertex="1">
          <mxGeometry x="977" y="390" width="86" height="60" as="geometry" />
        </mxCell>
        <mxCell id="mSEk94hID1eBO2uNQYs_-89" value="ins_name" style="ellipse;whiteSpace=wrap;html=1;" parent="1" vertex="1">
          <mxGeometry x="975" y="456" width="90" height="60" as="geometry" />
        </mxCell>
        <mxCell id="mSEk94hID1eBO2uNQYs_-90" value="" style="endArrow=none;html=1;rounded=0;exitX=0.5;exitY=0;exitDx=0;exitDy=0;entryX=0.037;entryY=0.656;entryDx=0;entryDy=0;entryPerimeter=0;" parent="1" source="mSEk94hID1eBO2uNQYs_-87" target="mSEk94hID1eBO2uNQYs_-88" edge="1">
          <mxGeometry width="50" height="50" relative="1" as="geometry">
            <mxPoint x="633" y="518" as="sourcePoint" />
            <mxPoint x="683" y="468" as="targetPoint" />
          </mxGeometry>
        </mxCell>
        <mxCell id="mSEk94hID1eBO2uNQYs_-91" value="" style="endArrow=none;html=1;rounded=0;exitX=1;exitY=0.5;exitDx=0;exitDy=0;entryX=0;entryY=0.5;entryDx=0;entryDy=0;" parent="1" source="mSEk94hID1eBO2uNQYs_-87" target="mSEk94hID1eBO2uNQYs_-89" edge="1">
          <mxGeometry width="50" height="50" relative="1" as="geometry">
            <mxPoint x="651" y="578" as="sourcePoint" />
            <mxPoint x="701" y="528" as="targetPoint" />
          </mxGeometry>
        </mxCell>
        <mxCell id="mSEk94hID1eBO2uNQYs_-92" value="ins_salary" style="ellipse;whiteSpace=wrap;html=1;" parent="1" vertex="1">
          <mxGeometry x="977" y="528" width="90" height="60" as="geometry" />
        </mxCell>
        <mxCell id="mSEk94hID1eBO2uNQYs_-93" value="" style="endArrow=none;html=1;rounded=0;entryX=0;entryY=0.5;entryDx=0;entryDy=0;" parent="1" source="mSEk94hID1eBO2uNQYs_-87" target="mSEk94hID1eBO2uNQYs_-92" edge="1">
          <mxGeometry width="50" height="50" relative="1" as="geometry">
            <mxPoint x="899" y="520.9999999999999" as="sourcePoint" />
            <mxPoint x="695" y="617" as="targetPoint" />
          </mxGeometry>
        </mxCell>
        <mxCell id="mSEk94hID1eBO2uNQYs_-94" value="ins_hourRate" style="ellipse;whiteSpace=wrap;html=1;" parent="1" vertex="1">
          <mxGeometry x="975" y="600" width="90" height="60" as="geometry" />
        </mxCell>
        <mxCell id="mSEk94hID1eBO2uNQYs_-95" value="" style="endArrow=none;html=1;rounded=0;entryX=0;entryY=0.5;entryDx=0;entryDy=0;exitX=0.5;exitY=1;exitDx=0;exitDy=0;" parent="1" source="mSEk94hID1eBO2uNQYs_-87" target="mSEk94hID1eBO2uNQYs_-94" edge="1">
          <mxGeometry width="50" height="50" relative="1" as="geometry">
            <mxPoint x="804.46" y="558" as="sourcePoint" />
            <mxPoint x="613.46" y="659" as="targetPoint" />
          </mxGeometry>
        </mxCell>
        <mxCell id="mSEk94hID1eBO2uNQYs_-96" value="ins_bouns" style="ellipse;whiteSpace=wrap;html=1;" parent="1" vertex="1">
          <mxGeometry x="864" y="612" width="90" height="60" as="geometry" />
        </mxCell>
        <mxCell id="mSEk94hID1eBO2uNQYs_-97" value="" style="endArrow=none;html=1;rounded=0;entryX=0.439;entryY=-0.003;entryDx=0;entryDy=0;exitX=0.176;exitY=0.991;exitDx=0;exitDy=0;exitPerimeter=0;entryPerimeter=0;" parent="1" source="mSEk94hID1eBO2uNQYs_-87" target="mSEk94hID1eBO2uNQYs_-96" edge="1">
          <mxGeometry width="50" height="50" relative="1" as="geometry">
            <mxPoint x="810.46" y="564" as="sourcePoint" />
            <mxPoint x="619.46" y="665" as="targetPoint" />
          </mxGeometry>
        </mxCell>
        <mxCell id="mSEk94hID1eBO2uNQYs_-98" value="ins_address" style="ellipse;whiteSpace=wrap;html=1;" parent="1" vertex="1">
          <mxGeometry x="774" y="648" width="90" height="60" as="geometry" />
        </mxCell>
        <mxCell id="mSEk94hID1eBO2uNQYs_-99" value="" style="endArrow=none;html=1;rounded=0;entryX=0.5;entryY=0;entryDx=0;entryDy=0;exitX=0.039;exitY=0.983;exitDx=0;exitDy=0;exitPerimeter=0;" parent="1" source="mSEk94hID1eBO2uNQYs_-87" target="mSEk94hID1eBO2uNQYs_-98" edge="1">
          <mxGeometry width="50" height="50" relative="1" as="geometry">
            <mxPoint x="816.46" y="570" as="sourcePoint" />
            <mxPoint x="625.46" y="671" as="targetPoint" />
          </mxGeometry>
        </mxCell>
        <mxCell id="mSEk94hID1eBO2uNQYs_-102" value="Mange" style="rhombus;whiteSpace=wrap;html=1;" parent="1" vertex="1">
          <mxGeometry x="810" y="339" width="66" height="64" as="geometry" />
        </mxCell>
        <mxCell id="mSEk94hID1eBO2uNQYs_-104" value="" style="endArrow=none;html=1;rounded=0;exitX=0.5;exitY=0;exitDx=0;exitDy=0;entryX=0.447;entryY=1.014;entryDx=0;entryDy=0;entryPerimeter=0;" parent="1" source="mSEk94hID1eBO2uNQYs_-102" target="mSEk94hID1eBO2uNQYs_-3" edge="1">
          <mxGeometry width="50" height="50" relative="1" as="geometry">
            <mxPoint x="714" y="386" as="sourcePoint" />
            <mxPoint x="764" y="336" as="targetPoint" />
          </mxGeometry>
        </mxCell>
        <mxCell id="mSEk94hID1eBO2uNQYs_-108" value="1" style="edgeLabel;html=1;align=center;verticalAlign=middle;resizable=0;points=[];" parent="mSEk94hID1eBO2uNQYs_-104" vertex="1" connectable="0">
          <mxGeometry x="0.5574" y="-1" relative="1" as="geometry">
            <mxPoint x="4" y="-1" as="offset" />
          </mxGeometry>
        </mxCell>
        <mxCell id="mSEk94hID1eBO2uNQYs_-105" value="Hiring Date" style="ellipse;whiteSpace=wrap;html=1;" parent="1" vertex="1">
          <mxGeometry x="912" y="339" width="75" height="56" as="geometry" />
        </mxCell>
        <mxCell id="mSEk94hID1eBO2uNQYs_-106" value="" style="endArrow=none;html=1;rounded=0;exitX=1;exitY=0.5;exitDx=0;exitDy=0;entryX=0;entryY=0.5;entryDx=0;entryDy=0;" parent="1" source="mSEk94hID1eBO2uNQYs_-102" target="mSEk94hID1eBO2uNQYs_-105" edge="1">
          <mxGeometry width="50" height="50" relative="1" as="geometry">
            <mxPoint x="853" y="434" as="sourcePoint" />
            <mxPoint x="977" y="384" as="targetPoint" />
          </mxGeometry>
        </mxCell>
        <mxCell id="mSEk94hID1eBO2uNQYs_-109" value="Teach" style="rhombus;whiteSpace=wrap;html=1;" parent="1" vertex="1">
          <mxGeometry x="642" y="294" width="80" height="80" as="geometry" />
        </mxCell>
        <mxCell id="mSEk94hID1eBO2uNQYs_-110" value="" style="endArrow=none;html=1;rounded=0;exitX=0;exitY=0;exitDx=0;exitDy=0;entryX=1;entryY=1;entryDx=0;entryDy=0;" parent="1" source="mSEk94hID1eBO2uNQYs_-87" target="mSEk94hID1eBO2uNQYs_-109" edge="1">
          <mxGeometry width="50" height="50" relative="1" as="geometry">
            <mxPoint x="747" y="465.98" as="sourcePoint" />
            <mxPoint x="744" y="400.98" as="targetPoint" />
          </mxGeometry>
        </mxCell>
        <mxCell id="mSEk94hID1eBO2uNQYs_-111" value="M" style="edgeLabel;html=1;align=center;verticalAlign=middle;resizable=0;points=[];rotation=90;" parent="mSEk94hID1eBO2uNQYs_-110" vertex="1" connectable="0">
          <mxGeometry x="-0.4775" y="-1" relative="1" as="geometry">
            <mxPoint x="12" y="3" as="offset" />
          </mxGeometry>
        </mxCell>
        <mxCell id="mSEk94hID1eBO2uNQYs_-112" value="" style="endArrow=none;html=1;rounded=0;exitX=0.812;exitY=0.04;exitDx=0;exitDy=0;exitPerimeter=0;" parent="1" source="mSEk94hID1eBO2uNQYs_-66" target="mSEk94hID1eBO2uNQYs_-109" edge="1">
          <mxGeometry width="50" height="50" relative="1" as="geometry">
            <mxPoint x="660" y="460" as="sourcePoint" />
            <mxPoint x="555" y="344" as="targetPoint" />
          </mxGeometry>
        </mxCell>
        <mxCell id="mSEk94hID1eBO2uNQYs_-113" value="M" style="edgeLabel;html=1;align=center;verticalAlign=middle;resizable=0;points=[];rotation=90;" parent="mSEk94hID1eBO2uNQYs_-112" vertex="1" connectable="0">
          <mxGeometry x="-0.4775" y="-1" relative="1" as="geometry">
            <mxPoint x="12" y="3" as="offset" />
          </mxGeometry>
        </mxCell>
        <mxCell id="mSEk94hID1eBO2uNQYs_-114" value="Evaluation" style="ellipse;whiteSpace=wrap;html=1;" parent="1" vertex="1">
          <mxGeometry x="642" y="192" width="75" height="56" as="geometry" />
        </mxCell>
        <mxCell id="mSEk94hID1eBO2uNQYs_-116" value="" style="endArrow=none;html=1;rounded=0;exitX=0.5;exitY=0;exitDx=0;exitDy=0;entryX=0.5;entryY=1;entryDx=0;entryDy=0;" parent="1" source="mSEk94hID1eBO2uNQYs_-109" target="mSEk94hID1eBO2uNQYs_-114" edge="1">
          <mxGeometry width="50" height="50" relative="1" as="geometry">
            <mxPoint x="822" y="356" as="sourcePoint" />
            <mxPoint x="717" y="240" as="targetPoint" />
          </mxGeometry>
        </mxCell>
        <mxCell id="mSEk94hID1eBO2uNQYs_-118" value="Topics" style="rounded=0;whiteSpace=wrap;html=1;fontSize=14;" parent="1" vertex="1">
          <mxGeometry x="236" y="624" width="92" height="42" as="geometry" />
        </mxCell>
        <mxCell id="mSEk94hID1eBO2uNQYs_-119" value="top_id&lt;hr&gt;" style="ellipse;whiteSpace=wrap;html=1;fontSize=14;" parent="1" vertex="1">
          <mxGeometry x="240" y="708" width="84" height="58" as="geometry" />
        </mxCell>
        <mxCell id="mSEk94hID1eBO2uNQYs_-122" value="top_name" style="ellipse;whiteSpace=wrap;html=1;fontSize=14;" parent="1" vertex="1">
          <mxGeometry x="102" y="624" width="98" height="54" as="geometry" />
        </mxCell>
        <mxCell id="mSEk94hID1eBO2uNQYs_-123" value="" style="endArrow=none;html=1;rounded=0;exitX=0.5;exitY=1;exitDx=0;exitDy=0;fontSize=14;" parent="1" source="mSEk94hID1eBO2uNQYs_-118" target="mSEk94hID1eBO2uNQYs_-119" edge="1">
          <mxGeometry width="50" height="50" relative="1" as="geometry">
            <mxPoint x="337" y="690.83" as="sourcePoint" />
            <mxPoint x="390" y="724.83" as="targetPoint" />
          </mxGeometry>
        </mxCell>
        <mxCell id="mSEk94hID1eBO2uNQYs_-124" value="" style="endArrow=none;html=1;rounded=0;exitX=0;exitY=0.5;exitDx=0;exitDy=0;fontSize=14;entryX=1;entryY=0.5;entryDx=0;entryDy=0;" parent="1" source="mSEk94hID1eBO2uNQYs_-118" target="mSEk94hID1eBO2uNQYs_-122" edge="1">
          <mxGeometry width="50" height="50" relative="1" as="geometry">
            <mxPoint x="210" y="666" as="sourcePoint" />
            <mxPoint x="210" y="708" as="targetPoint" />
          </mxGeometry>
        </mxCell>
        <mxCell id="mSEk94hID1eBO2uNQYs_-125" value="&lt;span data-sider-select-id=&quot;5fe6927a-3e03-4d8b-8e53-1d6d0b0c902a&quot; style=&quot;font-family: Arial, sans-serif; position: relative; top: 0.5pt;&quot;&gt;&lt;font data-sider-select-id=&quot;bdf83f0a-7c50-41d2-9404-ff720901f231&quot; style=&quot;font-size: 12px;&quot;&gt;classified&amp;nbsp;&lt;/font&gt;&lt;/span&gt;" style="rhombus;whiteSpace=wrap;html=1;" parent="1" vertex="1">
          <mxGeometry x="312" y="510" width="66" height="66" as="geometry" />
        </mxCell>
        <mxCell id="mSEk94hID1eBO2uNQYs_-127" value="" style="endArrow=none;html=1;rounded=0;exitX=0.5;exitY=0;exitDx=0;exitDy=0;fontSize=14;entryX=0;entryY=1;entryDx=0;entryDy=0;" parent="1" source="mSEk94hID1eBO2uNQYs_-118" target="mSEk94hID1eBO2uNQYs_-125" edge="1">
          <mxGeometry width="50" height="50" relative="1" as="geometry">
            <mxPoint x="246" y="564" as="sourcePoint" />
            <mxPoint x="306" y="528" as="targetPoint" />
          </mxGeometry>
        </mxCell>
        <mxCell id="mSEk94hID1eBO2uNQYs_-128" value="1" style="edgeLabel;html=1;align=center;verticalAlign=middle;resizable=0;points=[];" parent="mSEk94hID1eBO2uNQYs_-127" vertex="1" connectable="0">
          <mxGeometry x="-0.5174" y="3" relative="1" as="geometry">
            <mxPoint x="-9" as="offset" />
          </mxGeometry>
        </mxCell>
        <mxCell id="tzwZ_XYpyOZXb0Qg_7U3-1" value="" style="shape=link;html=1;rounded=0;entryX=0.413;entryY=0.043;entryDx=0;entryDy=0;entryPerimeter=0;exitX=0.5;exitY=1;exitDx=0;exitDy=0;" edge="1" parent="1" source="mSEk94hID1eBO2uNQYs_-102" target="mSEk94hID1eBO2uNQYs_-87">
          <mxGeometry width="100" relative="1" as="geometry">
            <mxPoint x="534" y="480" as="sourcePoint" />
            <mxPoint x="634" y="480" as="targetPoint" />
          </mxGeometry>
        </mxCell>
        <mxCell id="tzwZ_XYpyOZXb0Qg_7U3-2" value="M" style="edgeLabel;html=1;align=center;verticalAlign=middle;resizable=0;points=[];" vertex="1" connectable="0" parent="tzwZ_XYpyOZXb0Qg_7U3-1">
          <mxGeometry x="0.5967" y="2" relative="1" as="geometry">
            <mxPoint as="offset" />
          </mxGeometry>
        </mxCell>
        <mxCell id="tzwZ_XYpyOZXb0Qg_7U3-3" value="" style="shape=link;html=1;rounded=0;entryX=1;entryY=0;entryDx=0;entryDy=0;exitX=0;exitY=0.5;exitDx=0;exitDy=0;" edge="1" parent="1" source="mSEk94hID1eBO2uNQYs_-66" target="mSEk94hID1eBO2uNQYs_-125">
          <mxGeometry width="100" relative="1" as="geometry">
            <mxPoint x="849" y="409" as="sourcePoint" />
            <mxPoint x="851" y="478" as="targetPoint" />
          </mxGeometry>
        </mxCell>
        <mxCell id="tzwZ_XYpyOZXb0Qg_7U3-4" value="M" style="edgeLabel;html=1;align=center;verticalAlign=middle;resizable=0;points=[];" vertex="1" connectable="0" parent="tzwZ_XYpyOZXb0Qg_7U3-3">
          <mxGeometry x="0.5967" y="2" relative="1" as="geometry">
            <mxPoint x="43" y="-14" as="offset" />
          </mxGeometry>
        </mxCell>
      </root>
    </mxGraphModel>
  </diagram>
</mxfile>
